{
  "accessors": [
    {
      "bufferView": 2,
      "componentType": 5126,
      "count": 1052,
      "max": [
        6.4325480461120605,
        5.852699279785156,
        11.990215301513672
      ],
      "min": [
        -6.4325480461120605,
        -5.852699279785156,
        -11.990215301513672
      ],
      "type": "VEC3"
    },
    {
      "bufferView": 2,
      "byteOffset": 12624,
      "componentType": 5126,
      "count": 1052,
      "max": [
        1.0,
        0.9984697699546814,
        1.0
      ],
      "min": [
        -1.0,
        -0.9984697699546814,
        -1.0
      ],
      "type": "VEC3"
    },
    {
      "bufferView": 3,
      "componentType": 5126,
      "count": 1052,
      "max": [
        1.0,
        0.9976939558982849,
        0.6781826019287109,
        1.0
      ],
      "min": [
        -1.0,
        -0.9981333613395691,
        -1.0,
        1.0
      ],
      "type": "VEC4"
    },
    {
      "bufferView": 1,
      "componentType": 5126,
      "count": 1052,
      "max": [
        0.9662970304489136,
        0.9946960210800171
      ],
      "min": [
        0.006616666447371244,
        0.004701800644397736
      ],
      "type": "VEC2"
    },
    {
      "bufferView": 1,
      "byteOffset": 8416,
      "componentType": 5126,
      "count": 1052,
      "max": [
        0.9662970304489136,
        0.9946960210800171
      ],
      "min": [
        0.006616666447371244,
        0.004701800644397736
      ],
      "type": "VEC2"
    },
    {
      "bufferView": 1,
      "byteOffset": 16832,
      "componentType": 5126,
      "count": 1052,
      "max": [
        0.9662970304489136,
        0.9946960210800171
      ],
      "min": [
        0.006616666447371244,
        0.004701800644397736
      ],
      "type": "VEC2"
    },
    {
      "bufferView": 0,
      "componentType": 5125,
      "count": 3720,
      "type": "SCALAR"
    }
  ],
  "asset": {
    "extras": {
      "author": "plaggy (https://sketchfab.com/plaggy)",
      "license": "CC-BY-4.0 (http://creativecommons.org/licenses/by/4.0/)",
      "source": "https://sketchfab.com/3d-models/cc0-chair-9-cdaaa169fabe49bca58fcda2e5067c0a",
      "title": "CC0 - Chair 9"
    },
    "generator": "Sketchfab-13.40.0",
    "version": "2.0"
  },
  "bufferViews": [
    {
      "buffer": 0,
      "byteLength": 14880,
      "name": "floatBufferViews",
      "target": 34963
    },
    {
      "buffer": 0,
      "byteLength": 25248,
      "byteOffset": 14880,
      "byteStride": 8,
      "name": "floatBufferViews",
      "target": 34962
    },
    {
      "buffer": 0,
      "byteLength": 25248,
      "byteOffset": 40128,
      "byteStride": 12,
      "name": "floatBufferViews",
      "target": 34962
    },
    {
      "buffer": 0,
      "byteLength": 16832,
      "byteOffset": 65376,
      "byteStride": 16,
      "name": "floatBufferViews",
      "target": 34962
    }
  ],
  "buffers": [
    {
      "byteLength": 82208,
      "uri": "scene.bin"
    }
  ],
  "images": [
    {
      "uri": "textures/Chair9_baseColor.png"
    },
    {
      "uri": "textures/Chair9_metallicRoughness.png"
    },
    {
      "uri": "textures/Chair9_normal.png"
    }
  ],
  "materials": [
    {
      "name": "Chair9",
      "normalTexture": {
        "index": 2
      },
      "occlusionTexture": {
        "index": 1
      },
      "pbrMetallicRoughness": {
        "baseColorTexture": {
          "index": 0
        },
        "metallicRoughnessTexture": {
          "index": 1
        }
      }
    }
  ],
  "meshes": [
    {
      "name": "Chair9_Chair9_0",
      "primitives": [
        {
          "attributes": {
            "NORMAL": 1,
            "POSITION": 0,
            "TANGENT": 2,
            "TEXCOORD_0": 3,
            "TEXCOORD_1": 4,
            "TEXCOORD_2": 5
          },
          "indices": 6,
          "material": 0,
          "mode": 4
        }
      ]
    }
  ],
  "nodes": [
    {
      "children": [
        1
      ],
      "matrix": [
        1.0,
        0.0,
        0.0,
        0.0,
        0.0,
        2.220446049250313e-16,
        -1.0,
        0.0,
        0.0,
        1.0,
        2.220446049250313e-16,
        0.0,
        0.0,
        0.0,
        0.0,
        1.0
      ],
      "name": "Sketchfab_model"
    },
    {
      "children": [
        2
      ],
      "matrix": [
        0.02539999969303608,
        0.0,
        0.0,
        0.0,
        0.0,
        0.0,
        0.02539999969303608,
        0.0,
        0.0,
        -0.02539999969303608,
        0.0,
        0.0,
        0.0,
        0.0,
        0.0,
        1.0
      ],
      "name": "4a4b0887ed8148b9899cf5fab0b95f8f.fbx"
    },
    {
      "children": [
        3
      ],
      "name": "RootNode"
    },
    {
      "children": [
        4
      ],
      "matrix": [
        1.0,
        0.0,
        0.0,
        0.0,
        0.0,
        2.220446049250313e-16,
        -1.0,
        0.0,
        0.0,
        1.0,
        2.220446049250313e-16,
        0.0,
        0.0,
        0.0,
        -7.756666309433058e-05,
        1.0
      ],
      "name": "Chair9"
    },
    {
      "mesh": 0,
      "name": "Chair9_Chair9_0"
    }
  ],
  "samplers": [
    {
      "magFilter": 9729,
      "minFilter": 9987,
      "wrapS": 10497,
      "wrapT": 10497
    }
  ],
  "scene": 0,
  "scenes": [
    {
      "name": "Sketchfab_Scene",
      "nodes": [
        0
      ]
    }
  ],
  "textures": [
    {
      "sampler": 0,
      "source": 0
    },
    {
      "sampler": 0,
      "source": 1
    },
    {
      "sampler": 0,
      "source": 2
    }
  ]
}
